<?xml version="1.0" encoding="UTF-8" standalone="no"?>
<!-- Created with Inkscape (http://www.inkscape.org/) -->

<svg
   xmlns:dc="http://purl.org/dc/elements/1.1/"
   xmlns:cc="http://creativecommons.org/ns#"
   xmlns:rdf="http://www.w3.org/1999/02/22-rdf-syntax-ns#"
   xmlns:svg="http://www.w3.org/2000/svg"
   xmlns="http://www.w3.org/2000/svg"
   xmlns:sodipodi="http://sodipodi.sourceforge.net/DTD/sodipodi-0.dtd"
   xmlns:inkscape="http://www.inkscape.org/namespaces/inkscape"
   width="210mm"
   height="297mm"
   viewBox="0 0 210 297"
   version="1.1"
   id="svg6718"
   inkscape:version="0.92.4 5da689c313, 2019-01-14"
   sodipodi:docname="FomodeiVintage.svg">
  <defs
     id="defs6712" />
  <sodipodi:namedview
     id="base"
     pagecolor="#ffffff"
     bordercolor="#666666"
     borderopacity="1.0"
     inkscape:pageopacity="0.0"
     inkscape:pageshadow="2"
     inkscape:zoom="1"
     inkscape:cx="192.66518"
     inkscape:cy="714.69043"
     inkscape:document-units="mm"
     inkscape:current-layer="layer1"
     showgrid="false"
     showborder="true"
     showguides="true"
     inkscape:guide-bbox="true"
     inkscape:snap-smooth-nodes="true"
     inkscape:snap-global="false"
     inkscape:snap-center="true"
     inkscape:window-width="1920"
     inkscape:window-height="1025"
     inkscape:window-x="0"
     inkscape:window-y="0"
     inkscape:window-maximized="1" />
  <metadata
     id="metadata6715">
    <rdf:RDF>
      <cc:Work
         rdf:about="">
        <dc:format>image/svg+xml</dc:format>
        <dc:type
           rdf:resource="http://purl.org/dc/dcmitype/StillImage" />
        <dc:title></dc:title>
      </cc:Work>
    </rdf:RDF>
  </metadata>
  <g
     inkscape:label="Layer 1"
     inkscape:groupmode="layer"
     id="layer1">
    <g
       aria-label="FOMODEI94"
       style="font-style:normal;font-variant:normal;font-weight:bold;font-stretch:normal;font-size:11.28888893px;line-height:66.55000305;font-family:FreeSerif;-inkscape-font-specification:'FreeSerif Bold';letter-spacing:0px;word-spacing:0px;opacity:1;fill:#000000;fill-opacity:1;stroke:none;stroke-width:0.26458332"
       id="text6722"
       transform="translate(50.270833,-50.535417)">
      <path
         d="m 17.673415,118.53724 0.21302,-0.16741 -1.402086,-1.78405 -5.032605,3.95514 0.174389,0.2219 c 0.640336,-0.44581 0.91361,-0.44521 1.276339,0.0163 l 3.376169,4.29591 c 0.362729,0.46155 0.315198,0.65684 -0.28581,1.24404 l 0.174389,0.22189 3.195304,-2.5112 -0.174388,-0.22189 c -0.84448,0.60624 -1.087952,0.62529 -1.471608,0.13712 l -1.625304,-2.06807 c 0.919287,-0.69375 1.505789,-0.62344 2.439215,0.3085 l 0.221896,-0.17439 -2.357738,-3.00004 -0.221896,0.17439 c 0.635448,1.13741 0.568938,1.69221 -0.318646,2.38976 l -1.618329,-2.05919 c -0.258096,-0.32841 -0.212466,-0.50785 0.240203,-0.8636 1.730789,-1.36024 2.385194,-0.78333 3.197486,-0.11514 z"
         style="letter-spacing:2.26747894px;stroke-width:0.26458332"
         id="path7280"
         inkscape:connector-curvature="0" />
      <path
         d="m 23.554497,112.08631 c -2.079052,1.11544 -2.771367,3.38291 -1.661264,5.45201 1.104765,2.05916 3.351609,2.73692 5.410766,1.63215 2.059157,-1.10476 2.731576,-3.36156 1.626811,-5.42071 -1.088755,-2.02932 -3.376841,-2.73619 -5.376313,-1.66345 z m 0.166175,0.33361 c 1.094238,-0.58707 2.376666,0.27502 3.486768,2.34413 1.094092,2.03926 1.064413,3.46439 -0.07956,4.07815 -1.143976,0.61376 -2.347802,-0.14958 -3.425882,-2.159 -1.152799,-2.14869 -1.145195,-3.63885 0.01868,-4.26328 z"
         style="letter-spacing:2.26747894px;stroke-width:0.26458332"
         id="path7282"
         inkscape:connector-curvature="0" />
      <path
         d="m 38.634347,107.17195 1.618282,5.51345 c 0.178043,0.60659 0.06455,0.78108 -0.725592,1.09536 l 0.07948,0.2708 3.596203,-1.05554 -0.07948,-0.2708 c -0.876685,0.13967 -1.019977,0.0523 -1.24571,-0.71676 l -1.405266,-4.78771 c -0.228912,-0.7799 -0.114123,-0.99007 0.660712,-1.27632 l -0.07948,-0.2708 -2.729647,0.80119 -0.665742,5.74854 -3.667033,-4.47681 -2.74048,0.80438 0.07948,0.27079 c 0.809807,-0.1671 1.024449,-0.0772 1.189775,0.48611 l 1.510184,5.14517 c 0.19076,0.64992 0.0881,0.82123 -0.73136,1.15588 l 0.07948,0.27079 2.534673,-0.74396 -0.07948,-0.2708 c -0.907295,0.19571 -1.173509,0.0503 -1.40878,-0.75125 l -1.494288,-5.09101 4.618173,5.63298 0.292463,-0.0858 z"
         style="letter-spacing:2.26747894px;stroke-width:0.26458332"
         id="path7284"
         inkscape:connector-curvature="0" />
      <path
         d="m 49.497354,104.48396 c -2.351861,0.18819 -3.895286,1.98778 -3.708002,4.32839 0.186384,2.32936 1.972924,3.85118 4.302279,3.66479 2.329355,-0.18638 3.850275,-1.98417 3.663891,-4.31353 -0.183683,-2.2956 -1.99633,-3.86063 -4.258168,-3.67965 z m 0.01846,0.37225 c 1.237821,-0.099 2.066957,1.20493 2.254242,3.54554 0.184583,2.30685 -0.414053,3.6005 -1.70814,3.70405 -1.294086,0.10354 -2.090812,-1.07845 -2.272694,-3.35154 -0.194487,-2.43064 0.41,-3.7927 1.726592,-3.89805 z"
         style="letter-spacing:2.26747894px;stroke-width:0.26458332"
         id="path7286"
         inkscape:connector-curvature="0" />
      <path
         d="m 58.00269,111.06412 c -0.05149,0.49404 -0.355593,0.68934 -1.009162,0.64393 l -0.02925,0.2807 3.548072,0.36978 c 2.425265,0.25276 4.203593,-1.12821 4.445821,-3.45242 0.241058,-2.31298 -1.1846,-3.88032 -3.778286,-4.15063 l -3.424563,-0.35691 -0.02925,0.2807 c 0.711576,0.14226 0.907356,0.33292 0.853528,0.84941 z m 4.984238,-2.1932 c -0.271483,2.60491 -1.411871,3.20111 -2.579591,3.07941 -0.505264,-0.0526 -0.636016,-0.21383 -0.583358,-0.7191 L 60.425453,105.46 c 0.02691,-0.25824 0.265518,-0.36957 0.703413,-0.32394 1.010527,0.10532 2.145927,0.97275 1.858062,3.73486 z"
         style="letter-spacing:2.26747894px;stroke-width:0.26458332"
         id="path7288"
         inkscape:connector-curvature="0" />
      <path
         d="m 71.113568,114.03685 c -0.694844,-0.19794 -0.860919,-0.39784 -0.727926,-0.86469 l 0.748473,-2.62738 c 1.183407,0.33712 1.50792,0.88735 1.279431,2.18387 l 0.28228,0.0804 1.045388,-3.66964 -0.28228,-0.0804 c -0.509255,1.16959 -1.036255,1.45376 -2.176234,1.12901 l -0.04343,-0.0124 0.717545,-2.51881 c 0.117529,-0.41256 0.286505,-0.47007 0.851066,-0.30924 1.769681,0.50414 2.196514,1.02482 2.056587,2.54612 l 0.271423,0.0773 0.621666,-2.18224 -6.264456,-1.78459 -0.07732,0.27143 c 0.736758,0.25683 0.893554,0.48931 0.735818,1.04301 l -1.496946,5.25476 c -0.160829,0.56456 -0.346848,0.64069 -1.175004,0.49867 l -0.07732,0.27143 6.351312,1.80932 1.077593,-2.13453 -0.303994,-0.0866 c -0.839699,0.96981 -1.698273,1.59384 -3.41367,1.10516 z"
         style="letter-spacing:2.26747894px;stroke-width:0.26458332"
         id="path7290"
         inkscape:connector-curvature="0" />
      <path
         d="m 78.177373,115.76788 c -0.229747,0.51557 -0.479681,0.57722 -1.285203,0.30478 l -0.114873,0.25779 3.609002,1.60822 0.114873,-0.25779 c -0.760695,-0.40077 -0.892283,-0.63243 -0.653347,-1.16863 l 2.223943,-4.99073 c 0.238936,-0.53619 0.528995,-0.60468 1.305826,-0.29559 l 0.114873,-0.25779 -3.609002,-1.60822 -0.114873,0.25778 c 0.719448,0.38239 0.867065,0.63356 0.632724,1.15944 z"
         style="letter-spacing:2.26747894px;stroke-width:0.26458332"
         id="path7292"
         inkscape:connector-curvature="0" />
      <path
         d="m 82.847589,119.35632 c 1.468575,0.62615 2.27133,0.78271 3.369579,0.66956 1.435272,-0.14648 2.582706,-0.86346 3.325864,-2.0895 1.012333,-1.67012 0.785411,-3.29936 -0.566132,-4.11859 -1.206735,-0.73145 -2.654896,-0.30237 -3.45657,1.02022 -0.690493,1.13915 -0.453891,2.33863 0.598382,2.97646 0.366847,0.22236 0.647106,0.32624 0.989684,0.34908 -1.304566,1.21577 -2.548809,1.50444 -4.108665,0.94177 z m 5.517129,-2.87341 c -0.157994,0.26065 -0.364554,0.55787 -0.656839,0.97474 l -0.181104,0.23345 c -0.07402,0.10034 -0.15039,0.29166 -0.613776,0.0108 -0.598541,-0.36281 -0.475333,-1.06697 0.443374,-2.58263 0.678789,-1.11985 0.970185,-1.33925 1.443225,-1.05252 0.453732,0.27503 0.501382,0.87155 -0.43488,2.41617 z"
         style="letter-spacing:2.26747894px;stroke-width:0.26458332"
         id="path7294"
         inkscape:connector-curvature="0" />
      <path
         d="m 94.736985,123.97733 3.078322,-3.79702 -0.701528,-0.56874 -1.064792,0.25577 c -2.309695,0.55445 -3.54251,0.892 -4.744038,1.2985 l -0.80335,0.99091 2.174736,1.7631 -1.023738,1.26275 1.271519,1.03085 1.023737,-1.26275 0.552453,0.44789 0.789131,-0.97337 z m -1.253981,-1.01663 -1.832741,-1.48584 3.9442,-1.11858 z"
         style="letter-spacing:2.26747894px;stroke-width:0.26458332"
         id="path7296"
         inkscape:connector-curvature="0" />
    </g>
    <path
       style="color:#000000;font-style:normal;font-variant:normal;font-weight:normal;font-stretch:normal;font-size:medium;line-height:normal;font-family:sans-serif;font-variant-ligatures:normal;font-variant-position:normal;font-variant-caps:normal;font-variant-numeric:normal;font-variant-alternates:normal;font-feature-settings:normal;text-indent:0;text-align:start;text-decoration:none;text-decoration-line:none;text-decoration-style:solid;text-decoration-color:#000000;letter-spacing:normal;word-spacing:normal;text-transform:none;writing-mode:lr-tb;direction:ltr;text-orientation:mixed;dominant-baseline:auto;baseline-shift:baseline;text-anchor:start;white-space:normal;shape-padding:0;clip-rule:nonzero;display:inline;overflow:visible;visibility:visible;opacity:1;isolation:auto;mix-blend-mode:normal;color-interpolation:sRGB;color-interpolation-filters:linearRGB;solid-color:#000000;solid-opacity:1;vector-effect:none;fill:#000000;fill-opacity:1;fill-rule:evenodd;stroke:none;stroke-width:11.42146301;stroke-linecap:butt;stroke-linejoin:miter;stroke-miterlimit:4;stroke-dasharray:none;stroke-dashoffset:0;stroke-opacity:1;color-rendering:auto;image-rendering:auto;shape-rendering:auto;text-rendering:auto;enable-background:accumulate"
       d="m 35.736837,118.8067 c -0.24631,13.84661 3.629388,27.894 12.001851,40.18101 21.528389,31.59401 64.763422,39.78619 96.357422,18.2578 19.97591,-13.61173 30.59121,-35.9011 30.25914,-58.43881 l -5.68131,4.07417 -5.68079,-4.07417 c 0.36698,18.8798 -8.51446,37.54277 -25.32869,49.00011 C 111.17142,185.85936 75.22995,179.04912 57.177389,152.55606 50.124248,142.20522 46.865904,130.41175 47.094283,118.8067 l -5.678723,4.07417 z m 13.174389,29.6509 a 1.5844054,1.5844054 0 0 1 1.5844,1.5844 1.5844054,1.5844054 0 0 1 -1.5844,1.5844 1.5844054,1.5844054 0 0 1 -1.584399,-1.5844 1.5844054,1.5844054 0 0 1 1.584399,-1.5844 z m 112.266534,0 a 1.5844054,1.5844054 0 0 1 1.5844,1.5844 1.5844054,1.5844054 0 0 1 -1.5844,1.5844 1.5844054,1.5844054 0 0 1 -1.5844,-1.5844 1.5844054,1.5844054 0 0 1 1.5844,-1.5844 z m -106.943861,6.74119 c 0.50021,-0.0167 0.98298,0.24857 1.372009,0.78135 0.379876,0.52024 0.392748,0.97172 0.520898,1.14722 0.07781,0.1066 0.164146,0.12057 0.359152,0.0455 l 0.137459,0.18759 -1.360124,0.99322 -0.128157,-0.17518 c 0.652261,-0.87028 0.624306,-1.58036 0.276469,-2.05672 -0.311224,-0.42622 -0.742066,-0.51528 -1.130681,-0.23152 -0.300863,0.21969 -0.35668,0.47194 -0.236678,1.16272 l 0.215491,1.25522 c 0.09234,0.54762 -0.167588,1.17965 -0.637687,1.52291 -0.789766,0.57667 -1.779846,0.33855 -2.457214,-0.58911 -0.425644,-0.58292 -0.41438,-1.01421 -0.569991,-1.22732 -0.07323,-0.1003 -0.166206,-0.10935 -0.350367,-0.0325 l -0.132808,-0.18139 1.548226,-1.13068 0.132808,0.1819 c -0.278972,0.32863 -1.107979,1.29875 -0.407727,2.25775 0.352415,0.48263 0.858903,0.584 1.291394,0.2682 0.325935,-0.23799 0.379283,-0.50728 0.239779,-1.25109 l -0.106454,-0.56637 c -0.187365,-1.00677 -0.03017,-1.62141 0.521416,-2.02417 0.296162,-0.21625 0.602661,-0.32743 0.902787,-0.33745 z m 101.626351,0.27906 c 0.2459,3.9e-4 0.4832,0.083 0.70694,0.24959 0.67858,0.50515 0.52573,1.16539 0.32452,1.76062 l 2.70578,0.0698 c 0.12727,-0.002 0.22459,-0.0554 0.30799,-0.16743 l 0.15607,0.11576 -0.95033,1.2764 -2.90784,-0.16174 -0.12505,0.16794 1.22008,0.90848 c 0.44201,0.32904 0.55709,0.3178 0.98082,-0.12144 l 0.15554,0.11575 -1.56631,2.10427 -0.15606,-0.11576 c 0.30545,-0.5273 0.28961,-0.63631 -0.16485,-0.97462 l -2.75177,-2.04797 c -0.44824,-0.33368 -0.60622,-0.31607 -0.9803,0.12144 l -0.15555,-0.11628 1.4919,-2.00452 c 0.58306,-0.78325 1.16744,-1.18117 1.70842,-1.18029 z m -0.90537,0.99425 c -0.2448,0.0185 -0.4612,0.16941 -0.67438,0.45579 -0.14368,0.19299 -0.20703,0.36851 0.0109,0.53071 l 1.5875,1.18184 c 0.62711,-0.86839 0.67993,-1.26446 -0.0796,-1.82986 -0.32684,-0.24331 -0.5996,-0.35701 -0.8444,-0.33848 z m -96.951186,3.84524 c 0.692722,0.0337 1.373064,0.35333 1.91978,0.9524 1.051579,1.15228 0.965865,2.79658 -0.203605,3.86385 -1.186668,1.08297 -2.804649,1.01458 -3.887618,-0.17209 -1.082969,-1.18666 -1.008902,-2.79845 0.177767,-3.88141 0.5962,-0.5441 1.300956,-0.79646 1.993676,-0.76275 z m 93.207226,0.0243 1.13843,1.0666 -0.1328,0.1416 c -0.88583,-0.56432 -1.33837,-0.46724 -2.20348,0.45578 -0.27599,0.29446 -0.29425,0.41585 -0.0791,0.61754 l 1.31413,1.23145 0.0212,-0.0227 c 0.55745,-0.59459 0.54944,-1.00632 -0.005,-1.68569 l 0.13798,-0.14727 1.91409,1.7942 -0.13797,0.14728 c -0.72056,-0.54772 -1.15886,-0.52267 -1.73737,0.0946 l 1.36995,1.28415 c 0.24349,0.22823 0.41842,0.18983 0.75809,-0.17259 h -5.2e-4 c 0.83858,-0.8947 0.72745,-1.61601 0.39895,-2.43448 l 0.14882,-0.15865 0.96532,1.33067 -3.10472,3.31246 -0.1416,-0.13229 c 0.34745,-0.4615 0.35958,-0.59941 0.0651,-0.8754 l -2.74092,-2.56884 c -0.2888,-0.27068 -0.48034,-0.24806 -0.8692,0.12144 l -0.14159,-0.1328 z m -92.324592,0.72554 c -0.549658,0.008 -1.228031,0.36807 -2.001945,1.07435 -1.158005,1.05681 -1.464129,1.98761 -0.86248,2.64687 0.60165,0.65926 1.556414,0.43946 2.731617,-0.63304 1.192401,-1.0882 1.551141,-2.08809 0.975651,-2.71869 -0.229543,-0.25153 -0.513048,-0.37403 -0.842843,-0.36949 z m 4.170805,3.6065 3.314009,2.89491 -1.026294,1.17512 -0.140043,-0.12247 c 0.347717,-0.63403 0.654057,-1.15 -0.485758,-2.14561 -0.298105,-0.26035 -0.425521,-0.26846 -0.614433,-0.0522 l -1.184424,1.35651 c 0.58452,0.51053 0.96793,0.48453 1.655196,-0.0899 l 0.146245,0.12764 -1.725993,1.97559 -0.146244,-0.12764 c 0.510431,-0.74952 0.483162,-1.15477 -0.102836,-1.68723 l -1.189592,1.36218 c -0.280815,0.32149 -0.236733,0.48306 0.280603,0.97617 l -0.127641,0.14625 -2.104264,-1.83813 0.127641,-0.14573 c 0.473391,0.33107 0.611451,0.33806 0.876949,0.0341 l 2.471167,-2.82929 c 0.265498,-0.30395 0.230968,-0.48835 -0.151929,-0.86403 z m 83.672927,0.88625 c 0.35584,0.004 0.67088,0.15447 0.92759,0.4532 0.3895,0.45324 0.43935,1.03509 0.11937,1.62729 -0.16794,0.32852 -0.35298,0.51788 -1.14256,1.20665 l 0.94103,1.09502 c 0.36926,0.4297 0.4678,0.43738 0.9834,0.0966 l 0.12609,0.14675 -1.96577,1.68982 -0.12661,-0.14727 c 0.0546,-0.0674 0.10327,-0.13001 0.12092,-0.14522 0.24631,-0.27305 0.22164,-0.45618 -0.092,-0.82113 l -2.23552,-2.60191 c -0.35409,-0.41204 -0.51725,-0.43556 -0.95963,-0.11679 l -0.12661,-0.14676 1.89549,-1.62884 c 0.55294,-0.47517 1.07728,-0.71254 1.53479,-0.70745 z m -0.98082,0.79013 c -0.17364,0.0118 -0.34699,0.0973 -0.5302,0.25476 -0.19425,0.16693 -0.23365,0.3235 -0.1173,0.45889 l 1.35547,1.57768 c 0.75344,-0.64747 0.8356,-1.00456 0.21342,-1.72857 -0.34143,-0.39732 -0.63198,-0.58241 -0.92139,-0.56276 z m -77.858811,2.42104 3.810621,2.67684 -0.884184,1.28519 -0.183968,-0.12919 c 0.422906,-0.8316 0.297707,-1.35548 -0.465605,-1.9296 l -2.350761,3.34657 c -0.339043,0.48267 -0.313884,0.59542 0.211873,1.02164 l -0.111621,0.15865 -2.267045,-1.59267 0.111105,-0.15865 c 0.577402,0.33919 0.696688,0.31856 1.02681,-0.15141 l 2.350761,-3.34708 c -0.805351,-0.52777 -1.340888,-0.46752 -1.979724,0.21239 l -0.183968,-0.12919 z m 73.121631,1.24695 c 0.86641,-0.006 1.7064,0.42564 2.26291,1.24385 0.90352,1.32841 0.60597,2.91951 -0.72243,3.82303 -1.32841,0.90351 -2.91331,0.60184 -3.81682,-0.72657 -0.90788,-1.33482 -0.59762,-2.93507 0.74362,-3.84731 0.48371,-0.329 1.01288,-0.48954 1.53272,-0.493 z m -0.8263,0.5302 c -0.20147,6e-5 -0.39248,0.0593 -0.56896,0.17932 -0.75084,0.51068 -0.64876,1.52993 0.29404,2.9161 0.88169,1.29636 1.75952,1.73133 2.49752,1.22938 0.738,-0.50194 0.65604,-1.47805 -0.23875,-2.79362 -0.68091,-1.00114 -1.37944,-1.53134 -1.98385,-1.53118 z m -67.082729,1.84175 2.013831,1.07332 -0.09147,0.17157 c -0.370747,-0.16245 -0.485826,-0.14488 -0.591695,0.0537 -0.03286,0.0616 -0.04818,0.12382 -0.07235,0.25166 l -0.506945,2.93109 1.932698,-1.67845 0.110588,-0.78548 c 0.01228,-0.20453 -0.09185,-0.33943 -0.365353,-0.50281 l 0.09147,-0.17105 2.136821,1.13895 -0.09147,0.17156 c -0.04475,-0.015 -0.0788,-0.0338 -0.0925,-0.0408 -0.3123,-0.14006 -0.448272,-0.13337 -0.535884,0.031 -0.03285,0.0616 -0.06019,0.17944 -0.108519,0.43511 l -0.486792,2.69544 2.019515,-1.94045 c 0.08535,-0.0776 0.153562,-0.173 0.20102,-0.262 0.113171,-0.21232 0.04676,-0.33577 -0.312126,-0.55345 l 0.09147,-0.17105 1.246436,0.66456 -0.09095,0.17105 c -0.236966,-0.0999 -0.471355,-0.0399 -0.706419,0.18655 l -3.56774,3.39256 -0.184485,-0.0982 0.569991,-3.89123 -3.01532,2.58795 -0.191719,-0.10232 0.745691,-4.89737 c 0.06245,-0.39766 0.027,-0.49546 -0.238745,-0.68988 z m 60.581309,1.75338 0.0899,0.17157 c -0.58357,0.34105 -0.63256,0.48081 -0.36225,0.99632 l 1.70119,3.24425 c 0.15498,0.29558 0.33209,0.31648 0.75138,0.0966 1.3472,-0.70642 1.13565,-1.77834 1.0945,-2.29133 l 0.19947,-0.10439 0.5364,1.70791 -3.97288,2.08307 -0.0904,-0.17156 c 0.46933,-0.32496 0.5192,-0.44735 0.33539,-0.79788 l -1.7446,-3.32693 c -0.18382,-0.35055 -0.36517,-0.39588 -0.84698,-0.17829 l -0.0899,-0.17156 z m -4.44107,2.16576 0.56896,1.45263 -0.18035,0.0708 c -0.55715,-0.89035 -1.00748,-0.99729 -2.1854,-0.53588 -0.37577,0.1472 -0.44449,0.24887 -0.33693,0.52348 l 0.65681,1.6769 0.0289,-0.0114 c 0.75878,-0.29722 0.92849,-0.67211 0.71985,-1.52394 l 0.1881,-0.0739 0.95653,2.44274 -0.18758,0.0734 c -0.41508,-0.8043 -0.82203,-0.97 -1.60972,-0.66145 l 0.68523,1.74872 c 0.12172,0.31074 0.2956,0.35119 0.75809,0.17002 1.14178,-0.44725 1.35132,-1.14655 1.40663,-2.02675 l 0.20258,-0.0791 0.29972,1.61643 -4.22765,1.65572 -0.0708,-0.18035 c 0.51211,-0.26729 0.58232,-0.38646 0.43512,-0.76223 l -1.36994,-3.49798 c -0.14437,-0.36855 -0.32721,-0.43048 -0.83716,-0.26407 l -0.0708,-0.18035 z m -46.14395,0.75448 0.203088,0.0775 0.167431,4.43074 c 0.03733,0.99394 0.09534,1.19056 0.378273,1.29811 l 0.02894,0.0109 -0.06873,0.18139 -2.350244,-0.89349 0.06873,-0.18138 c 0.107082,0.0241 0.204025,0.0529 0.240297,0.0667 0.259426,0.082 0.381338,0.0454 0.439248,-0.10697 0.06067,-0.1596 0.0729,-0.454 0.04134,-1.11363 l -1.632458,-0.62063 -0.216008,0.24184 c -0.30126,0.33385 -0.428205,0.49327 -0.464053,0.58757 -0.0717,0.18862 0.06463,0.33176 0.481623,0.52348 l -0.06873,0.18138 -1.472777,-0.56017 0.06873,-0.18087 c 0.373044,0.0671 0.501388,-0.009 1.033529,-0.57877 z m -0.915189,1.40405 -1.352373,1.50378 1.414902,0.53744 z m 41.254329,0.0243 0.0501,0.18759 c -0.37589,0.15664 -0.45481,0.28183 -0.51057,0.79478 l -0.53382,4.8581 -0.20257,0.0543 -3.11919,-3.97856 c -0.29762,-0.36261 -0.38156,-0.40427 -0.77049,-0.35657 l -0.0496,-0.18759 2.51923,-0.67282 0.0501,0.18758 c -0.11047,0.0375 -0.20591,0.0711 -0.24339,0.0811 -0.28093,0.0911 -0.37164,0.20323 -0.32557,0.37569 0.0301,0.11247 0.0842,0.19467 0.31678,0.49403 l 1.70377,2.22777 0.29352,-2.72128 c 0.0413,-0.35647 0.0393,-0.45261 0.007,-0.57258 -0.0641,-0.23995 -0.19039,-0.26234 -0.73277,-0.15761 l -0.0501,-0.18707 z m -36.05103,0.20774 2.422075,0.61444 c 1.376629,0.34942 2.001379,1.01231 1.781804,1.8774 -0.208123,0.81996 -0.876813,0.93042 -1.503785,0.97152 l 0.967898,2.52801 c 0.05041,0.11688 0.136414,0.18677 0.27182,0.22117 l -0.04754,0.18811 -1.542023,-0.39171 -0.959634,-2.7497 -0.203088,-0.0517 -0.374137,1.47485 c -0.135565,0.53409 -0.08139,0.63573 0.486275,0.85989 l -0.04754,0.1881 -2.542995,-0.64544 0.04806,-0.1881 c 0.603943,0.0812 0.698291,0.0252 0.837673,-0.524 l 0.843878,-3.32486 c 0.137475,-0.54163 0.06085,-0.68151 -0.486275,-0.86041 z m 2.056722,0.80719 c -0.153934,-0.0102 -0.271304,0.0444 -0.321426,0.24184 l -0.486794,1.91823 c 1.041937,0.24846 1.428456,0.14624 1.661398,-0.77152 0.200486,-0.78988 0.0043,-1.18395 -0.687813,-1.35961 -0.0583,-0.0148 -0.114054,-0.0256 -0.165365,-0.0289 z m 26.751338,0.75913 0.23151,1.54305 -0.19224,0.0284 c -0.34501,-0.99199 -0.76018,-1.1964 -2.01124,-1.00873 -0.39912,0.0599 -0.48817,0.14398 -0.44442,0.43564 l 0.26717,1.78077 0.0305,-0.005 c 0.8059,-0.12089 1.0551,-0.44861 1.04128,-1.3255 l 0.19947,-0.03 0.38912,2.59416 -0.19947,0.03 c -0.22566,-0.87652 -0.58553,-1.12854 -1.42213,-1.00304 l 0.27853,1.85725 c 0.0495,0.33025 0.21055,0.40805 0.70177,0.33435 v 5.2e-4 c 1.21268,-0.18191 1.57281,-0.81661 1.82262,-1.66243 l 0.21498,-0.0326 -0.0677,1.64279 -4.49016,0.67335 -0.0289,-0.19172 c 0.55875,-0.1466 0.65363,-0.24736 0.59376,-0.64647 l -0.55707,-3.7145 c -0.0587,-0.39143 -0.22286,-0.4926 -0.75706,-0.44391 l -0.0289,-0.19171 z m -21.925274,0.0661 4.435904,0.61133 -0.21291,1.54565 -0.192234,-0.0269 c -0.05126,-1.04905 -0.39165,-1.36204 -1.644862,-1.53479 -0.399796,-0.0551 -0.509566,3.3e-4 -0.549836,0.29249 l -0.24598,1.78336 0.03101,0.004 c 0.807284,0.11127 1.138505,-0.13304 1.372526,-0.97823 l 0.199988,0.0279 -0.358118,2.59829 -0.199988,-0.0274 c 0.03068,-0.90457 -0.243036,-1.2477 -1.081069,-1.36322 l -0.256834,1.86035 c -0.04557,0.3306 0.08672,0.45052 0.578776,0.51832 v 5.1e-4 c 1.214768,0.16745 1.739236,-0.34004 2.217436,-1.08107 l 0.215485,0.0295 -0.528127,1.55701 -4.497401,-0.62012 0.02635,-0.19223 c 0.577421,0.0169 0.696783,-0.0529 0.751893,-0.45269 l 0.51263,-3.72122 c 0.05405,-0.39211 -0.07473,-0.53484 -0.600996,-0.63872 z m 13.041584,0.88264 c 1.5996,0.0554 2.58765,0.96705 2.64118,2.46496 0.0574,1.60552 -1.02166,2.71616 -2.697,2.77606 l -2.45049,0.0873 -0.007,-0.19378 c 0.44931,-0.0316 0.63801,-0.19359 0.6258,-0.53485 l -0.13694,-3.82406 c -0.0127,-0.35679 -0.16443,-0.46781 -0.66249,-0.49661 l -0.007,-0.19379 2.36575,-0.0848 c 0.11198,-0.004 0.2215,-0.004 0.32815,-5.1e-4 z m -0.3266,0.26458 c -0.30249,0.0108 -0.45443,0.10945 -0.44803,0.28784 l 0.14262,3.98683 c 0.0125,0.34898 0.1171,0.44607 0.46612,0.43357 0.80665,-0.0288 1.52572,-0.54358 1.46141,-2.34301 -0.0682,-1.90801 -0.92407,-2.39013 -1.62212,-2.36523 z"
       id="path7273"
       inkscape:connector-curvature="0" />
    <path
       style="opacity:1;fill:none;stroke:#000000;stroke-width:0.5291667;stroke-linecap:round;stroke-linejoin:miter;stroke-miterlimit:4;stroke-dasharray:none;stroke-opacity:1"
       d="M 110.95894,111.63622 134.93493,80.01043"
       id="path7584"
       inkscape:connector-curvature="0" />
    <path
       style="opacity:1;fill:none;stroke:#000000;stroke-width:0.5291667;stroke-linecap:round;stroke-linejoin:miter;stroke-miterlimit:4;stroke-dasharray:none;stroke-opacity:1"
       d="m 75.153673,158.86554 14.89705,-19.65012"
       id="path7580"
       inkscape:connector-curvature="0" />
    <path
       style="opacity:1;fill:none;stroke:#000000;stroke-width:0.5291667;stroke-linecap:round;stroke-linejoin:miter;stroke-miterlimit:4;stroke-dasharray:none;stroke-opacity:1"
       d="M 113.86971,112.58399 144.12104,89.09016"
       id="path7578"
       inkscape:connector-curvature="0" />
    <path
       style="opacity:1;fill:none;stroke:#000000;stroke-width:0.5291667;stroke-linecap:round;stroke-linejoin:miter;stroke-miterlimit:4;stroke-dasharray:none;stroke-opacity:1"
       d="M 65.967563,149.78581 93.711021,128.23965"
       id="path7574"
       inkscape:connector-curvature="0" />
    <path
       style="opacity:1;fill:none;stroke:#000000;stroke-width:0.5291667;stroke-linecap:round;stroke-linejoin:miter;stroke-miterlimit:4;stroke-dasharray:none;stroke-opacity:1"
       d="m 121.46182,112.52534 29.1823,-12.2873"
       id="path7572"
       inkscape:connector-curvature="0" />
    <path
       style="opacity:1;fill:none;stroke:#000000;stroke-width:0.5291667;stroke-linecap:round;stroke-linejoin:miter;stroke-miterlimit:4;stroke-dasharray:none;stroke-opacity:1"
       d="M 59.444483,138.63793 94.311078,123.95725"
       id="path7568"
       inkscape:connector-curvature="0" />
    <path
       style="opacity:1;fill:none;stroke:#000000;stroke-width:0.5291667;stroke-linecap:round;stroke-linejoin:miter;stroke-miterlimit:4;stroke-dasharray:none;stroke-opacity:1"
       d="m 126.16577,116.53206 27.89389,-3.8377"
       id="path7566"
       inkscape:connector-curvature="0" />
    <path
       style="opacity:1;fill:none;stroke:#000000;stroke-width:0.5291667;stroke-linecap:round;stroke-linejoin:miter;stroke-miterlimit:4;stroke-dasharray:none;stroke-opacity:1"
       d="m 56.028943,126.18161 34.712131,-4.77575"
       id="path7562"
       inkscape:connector-curvature="0" />
    <path
       style="opacity:1;fill:none;stroke:#000000;stroke-width:0.5291667;stroke-linecap:round;stroke-linejoin:miter;stroke-miterlimit:4;stroke-dasharray:none;stroke-opacity:1"
       d="m 119.54885,121.26167 34.58603,4.34859"
       id="path7560"
       inkscape:connector-curvature="0" />
    <path
       style="opacity:1;fill:none;stroke:#000000;stroke-width:0.5291667;stroke-linecap:round;stroke-linejoin:miter;stroke-miterlimit:4;stroke-dasharray:none;stroke-opacity:1"
       d="m 55.953723,113.26571 28.394697,3.57013"
       id="path7556"
       inkscape:connector-curvature="0" />
    <path
       style="opacity:1;fill:none;stroke:#000000;stroke-width:0.5291667;stroke-linecap:round;stroke-linejoin:miter;stroke-miterlimit:4;stroke-dasharray:none;stroke-opacity:1"
       d="m 115.90823,123.86404 34.95643,14.24149"
       id="path7554"
       inkscape:connector-curvature="0" />
    <path
       style="opacity:1;fill:none;stroke:#000000;stroke-width:0.5291667;stroke-linecap:round;stroke-linejoin:miter;stroke-miterlimit:4;stroke-dasharray:none;stroke-opacity:1"
       d="m 59.223953,100.77046 28.841545,11.75025"
       id="path7550"
       inkscape:connector-curvature="0" />
    <path
       style="opacity:1;fill:none;stroke:#000000;stroke-width:0.5291667;stroke-linecap:round;stroke-linejoin:miter;stroke-miterlimit:4;stroke-dasharray:none;stroke-opacity:1"
       d="m 116.28449,127.95935 28.18736,21.36927"
       id="path7548"
       inkscape:connector-curvature="0" />
    <path
       style="opacity:1;fill:none;stroke:#000000;stroke-width:0.5291667;stroke-linecap:round;stroke-linejoin:miter;stroke-miterlimit:4;stroke-dasharray:none;stroke-opacity:1"
       d="M 65.616753,89.54735 96.00094,112.58207"
       id="path7544"
       inkscape:connector-curvature="0" />
    <path
       style="opacity:1;fill:none;stroke:#000000;stroke-width:0.5291667;stroke-linecap:round;stroke-linejoin:miter;stroke-miterlimit:4;stroke-dasharray:none;stroke-opacity:1"
       d="m 119.76087,138.38748 15.63125,20.12725"
       id="path7542"
       inkscape:connector-curvature="0" />
    <path
       style="opacity:1;fill:none;stroke:#000000;stroke-width:0.5291667;stroke-linecap:round;stroke-linejoin:miter;stroke-miterlimit:4;stroke-dasharray:none;stroke-opacity:1"
       d="M 74.696483,80.36124 99.08812,111.76863"
       id="path7538"
       inkscape:connector-curvature="0" />
    <path
       style="opacity:1;fill:none;stroke:#000000;stroke-width:0.5291667;stroke-linecap:round;stroke-linejoin:miter;stroke-miterlimit:4;stroke-dasharray:none;stroke-opacity:1"
       d="m 112.56643,137.30302 11.67781,27.73479"
       id="path7536"
       inkscape:connector-curvature="0" />
    <path
       style="opacity:1;fill:none;stroke:#000000;stroke-width:0.5291667;stroke-linecap:round;stroke-linejoin:miter;stroke-miterlimit:4;stroke-dasharray:none;stroke-opacity:1"
       d="M 85.844364,73.83816 100.25807,108.0707"
       id="path7532"
       inkscape:connector-curvature="0" />
    <path
       style="opacity:1;fill:none;stroke:#000000;stroke-width:0.5291667;stroke-linecap:round;stroke-linejoin:miter;stroke-miterlimit:4;stroke-dasharray:none;stroke-opacity:1"
       d="m 106.92962,133.14126 4.85829,35.31209"
       id="path7530"
       inkscape:connector-curvature="0" />
    <path
       style="opacity:1;fill:none;stroke:#000000;stroke-width:0.5291667;stroke-linecap:round;stroke-linejoin:miter;stroke-miterlimit:4;stroke-dasharray:none;stroke-opacity:1"
       d="m 98.300693,70.42262 4.203197,30.55061"
       id="path7526"
       inkscape:connector-curvature="0" />
    <path
       style="opacity:1;fill:none;stroke:#000000;stroke-width:0.5291667;stroke-linecap:round;stroke-linejoin:miter;stroke-miterlimit:4;stroke-dasharray:none;stroke-opacity:1"
       d="m 103.33814,133.00774 -4.46612,35.52082"
       id="path7524"
       inkscape:connector-curvature="0" />
    <path
       style="opacity:1;fill:none;stroke:#000000;stroke-width:0.5291667;stroke-linecap:round;stroke-linejoin:miter;stroke-miterlimit:4;stroke-dasharray:none;stroke-opacity:1"
       d="m 111.21658,70.34741 -3.78851,30.1315"
       id="path7520"
       inkscape:connector-curvature="0" />
    <path
       style="opacity:1;fill:none;stroke:#000000;stroke-width:0.5291667;stroke-linecap:round;stroke-linejoin:miter;stroke-miterlimit:4;stroke-dasharray:none;stroke-opacity:1"
       d="M 109.76272,107.85641 123.71184,73.61763"
       id="path7518"
       inkscape:connector-curvature="0" />
    <path
       style="opacity:1;fill:none;stroke:#000000;stroke-width:0.5291667;stroke-linecap:round;stroke-linejoin:miter;stroke-miterlimit:4;stroke-dasharray:none;stroke-opacity:1"
       d="M 86.376764,165.25834 97.871092,137.04496"
       id="path7358"
       inkscape:connector-curvature="0" />
    <path
       style="opacity:1;fill:none;stroke:#000000;stroke-width:0.79374999;stroke-linecap:round;stroke-linejoin:miter;stroke-miterlimit:4;stroke-dasharray:none;stroke-opacity:1"
       d="m 112.81602,90.43353 1.54145,-5.75278"
       id="path7695"
       inkscape:connector-curvature="0" />
    <path
       style="opacity:1;fill:none;stroke:#000000;stroke-width:0.79374999;stroke-linecap:round;stroke-linejoin:miter;stroke-miterlimit:4;stroke-dasharray:none;stroke-opacity:1"
       d="m 108.88803,105.09298 2.3301,-8.69604"
       id="path7693"
       inkscape:connector-curvature="0" />
    <path
       style="opacity:1;fill:none;stroke:#000000;stroke-width:0.79374999;stroke-linecap:round;stroke-linejoin:miter;stroke-miterlimit:4;stroke-dasharray:none;stroke-opacity:1"
       d="m 98.87047,142.47901 2.06177,-7.69459"
       id="path7689"
       inkscape:connector-curvature="0" />
    <path
       style="opacity:1;fill:none;stroke:#000000;stroke-width:0.79374999;stroke-linecap:round;stroke-linejoin:miter;stroke-miterlimit:4;stroke-dasharray:none;stroke-opacity:1"
       d="m 95.731134,154.19522 1.541449,-5.75278"
       id="path7687"
       inkscape:connector-curvature="0" />
    <path
       style="opacity:1;fill:none;stroke:#000000;stroke-width:0.79374999;stroke-linecap:round;stroke-linejoin:miter;stroke-miterlimit:4;stroke-dasharray:none;stroke-opacity:1"
       d="m 120.05811,93.4333 2.97786,-5.15779"
       id="path7685"
       inkscape:connector-curvature="0" />
    <path
       style="opacity:1;fill:none;stroke:#000000;stroke-width:0.79374999;stroke-linecap:round;stroke-linejoin:miter;stroke-miterlimit:4;stroke-dasharray:none;stroke-opacity:1"
       d="m 110.45957,110.05845 6.51165,-11.2785"
       id="path7683"
       inkscape:connector-curvature="0" />
    <path
       style="opacity:1;fill:none;stroke:#000000;stroke-width:0.79374999;stroke-linecap:round;stroke-linejoin:miter;stroke-miterlimit:4;stroke-dasharray:none;stroke-opacity:1"
       d="m 87.052634,150.60047 2.977859,-5.15781"
       id="path7679"
       inkscape:connector-curvature="0" />
    <path
       style="opacity:1;fill:none;stroke:#000000;stroke-width:0.79374999;stroke-linecap:round;stroke-linejoin:miter;stroke-miterlimit:4;stroke-dasharray:none;stroke-opacity:1"
       d="m 126.27704,98.20525 4.21132,-4.21132"
       id="path7677"
       inkscape:connector-curvature="0" />
    <path
       style="opacity:1;fill:none;stroke:#000000;stroke-width:0.79374999;stroke-linecap:round;stroke-linejoin:miter;stroke-miterlimit:4;stroke-dasharray:none;stroke-opacity:1"
       d="m 111.88317,112.59911 10.02834,-10.02834"
       id="path7675"
       inkscape:connector-curvature="0" />
    <path
       style="opacity:1;fill:none;stroke:#000000;stroke-width:0.79374999;stroke-linecap:round;stroke-linejoin:miter;stroke-miterlimit:4;stroke-dasharray:none;stroke-opacity:1"
       d="m 88.177092,136.30518 4.267448,-4.26744"
       id="path7671"
       inkscape:connector-curvature="0" />
    <path
       style="opacity:1;fill:none;stroke:#000000;stroke-width:0.79374999;stroke-linecap:round;stroke-linejoin:miter;stroke-miterlimit:4;stroke-dasharray:none;stroke-opacity:1"
       d="m 79.600242,144.88205 4.211331,-4.21133"
       id="path7669"
       inkscape:connector-curvature="0" />
    <path
       style="opacity:1;fill:none;stroke:#000000;stroke-width:0.79374999;stroke-linecap:round;stroke-linejoin:miter;stroke-miterlimit:4;stroke-dasharray:none;stroke-opacity:1"
       d="m 131.04898,104.42418 5.1578,-2.97786"
       id="path7667"
       inkscape:connector-curvature="0" />
    <path
       style="opacity:1;fill:none;stroke:#000000;stroke-width:0.79374999;stroke-linecap:round;stroke-linejoin:miter;stroke-miterlimit:4;stroke-dasharray:none;stroke-opacity:1"
       d="m 116.95768,112.5598 8.74465,-5.04873"
       id="path7665"
       inkscape:connector-curvature="0" />
    <path
       style="opacity:1;fill:none;stroke:#000000;stroke-width:0.79374999;stroke-linecap:round;stroke-linejoin:miter;stroke-miterlimit:4;stroke-dasharray:none;stroke-opacity:1"
       d="m 84.386274,131.36489 10.257629,-5.92224"
       id="path7661"
       inkscape:connector-curvature="0" />
    <path
       style="opacity:1;fill:none;stroke:#000000;stroke-width:0.79374999;stroke-linecap:round;stroke-linejoin:miter;stroke-miterlimit:4;stroke-dasharray:none;stroke-opacity:1"
       d="m 73.881823,137.42966 5.157799,-2.97786"
       id="path7659"
       inkscape:connector-curvature="0" />
    <path
       style="opacity:1;fill:none;stroke:#000000;stroke-width:0.79374999;stroke-linecap:round;stroke-linejoin:miter;stroke-miterlimit:4;stroke-dasharray:none;stroke-opacity:1"
       d="m 134.04875,111.66627 5.75278,-1.54145"
       id="path7657"
       inkscape:connector-curvature="0" />
    <path
       style="opacity:1;fill:none;stroke:#000000;stroke-width:0.79374999;stroke-linecap:round;stroke-linejoin:miter;stroke-miterlimit:4;stroke-dasharray:none;stroke-opacity:1"
       d="M 82.003273,125.6118 92.638874,122.762"
       id="path7653"
       inkscape:connector-curvature="0" />
    <path
       style="opacity:1;fill:none;stroke:#000000;stroke-width:0.79374999;stroke-linecap:round;stroke-linejoin:miter;stroke-miterlimit:4;stroke-dasharray:none;stroke-opacity:1"
       d="m 70.287073,128.75116 5.75279,-1.54145"
       id="path7651"
       inkscape:connector-curvature="0" />
    <path
       style="opacity:1;fill:none;stroke:#000000;stroke-width:0.79374999;stroke-linecap:round;stroke-linejoin:miter;stroke-miterlimit:4;stroke-dasharray:none;stroke-opacity:1"
       d="m 135.07192,119.43799 h 5.95571"
       id="path7649"
       inkscape:connector-curvature="0" />
    <path
       style="opacity:1;fill:none;stroke:#000000;stroke-width:0.79374999;stroke-linecap:round;stroke-linejoin:miter;stroke-miterlimit:4;stroke-dasharray:none;stroke-opacity:1"
       d="m 122.10011,119.43799 h 6.79803"
       id="path7647"
       inkscape:connector-curvature="0" />
    <path
       style="opacity:1;fill:none;stroke:#000000;stroke-width:0.79374999;stroke-linecap:round;stroke-linejoin:miter;stroke-miterlimit:4;stroke-dasharray:none;stroke-opacity:1"
       d="m 81.190473,119.43798 h 6.79855"
       id="path7643"
       inkscape:connector-curvature="0" />
    <path
       style="opacity:1;fill:none;stroke:#000000;stroke-width:0.79374999;stroke-linecap:round;stroke-linejoin:miter;stroke-miterlimit:4;stroke-dasharray:none;stroke-opacity:1"
       d="m 69.060963,119.43799 h 5.95572"
       id="path7641"
       inkscape:connector-curvature="0" />
    <path
       style="opacity:1;fill:none;stroke:#000000;stroke-width:0.79374999;stroke-linecap:round;stroke-linejoin:miter;stroke-miterlimit:4;stroke-dasharray:none;stroke-opacity:1"
       d="m 134.04875,127.20971 5.75278,1.54145"
       id="path7639"
       inkscape:connector-curvature="0" />
    <path
       style="opacity:1;fill:none;stroke:#000000;stroke-width:0.79374999;stroke-linecap:round;stroke-linejoin:miter;stroke-miterlimit:4;stroke-dasharray:none;stroke-opacity:1"
       d="m 117.44974,122.76202 10.6356,2.8498"
       id="path7637"
       inkscape:connector-curvature="0" />
    <path
       style="opacity:1;fill:none;stroke:#000000;stroke-width:0.79374999;stroke-linecap:round;stroke-linejoin:miter;stroke-miterlimit:4;stroke-dasharray:none;stroke-opacity:1"
       d="m 70.287073,110.12482 5.75277,1.54145"
       id="path7633"
       inkscape:connector-curvature="0" />
    <path
       style="opacity:1;fill:none;stroke:#000000;stroke-width:0.79374999;stroke-linecap:round;stroke-linejoin:miter;stroke-miterlimit:4;stroke-dasharray:none;stroke-opacity:1"
       d="m 131.04899,134.4518 5.15779,2.97786"
       id="path7631"
       inkscape:connector-curvature="0" />
    <path
       style="opacity:1;fill:none;stroke:#000000;stroke-width:0.79374999;stroke-linecap:round;stroke-linejoin:miter;stroke-miterlimit:4;stroke-dasharray:none;stroke-opacity:1"
       d="m 115.4451,125.44289 10.25724,5.92202"
       id="path7629"
       inkscape:connector-curvature="0" />
    <path
       style="opacity:1;fill:none;stroke:#000000;stroke-width:0.79374999;stroke-linecap:round;stroke-linejoin:miter;stroke-miterlimit:4;stroke-dasharray:none;stroke-opacity:1"
       d="m 84.386293,107.51107 8.744656,5.04873"
       id="path7625"
       inkscape:connector-curvature="0" />
    <path
       style="opacity:1;fill:none;stroke:#000000;stroke-width:0.79374999;stroke-linecap:round;stroke-linejoin:miter;stroke-miterlimit:4;stroke-dasharray:none;stroke-opacity:1"
       d="m 73.881823,101.44632 5.157809,2.97786"
       id="path7623"
       inkscape:connector-curvature="0" />
    <path
       style="opacity:1;fill:none;stroke:#000000;stroke-width:0.79374999;stroke-linecap:round;stroke-linejoin:miter;stroke-miterlimit:4;stroke-dasharray:none;stroke-opacity:1"
       d="m 126.27704,140.67073 4.21132,4.21132"
       id="path7621"
       inkscape:connector-curvature="0" />
    <path
       style="opacity:1;fill:none;stroke:#000000;stroke-width:0.79374999;stroke-linecap:round;stroke-linejoin:miter;stroke-miterlimit:4;stroke-dasharray:none;stroke-opacity:1"
       d="m 117.64408,132.03776 4.26744,4.26744"
       id="path7619"
       inkscape:connector-curvature="0" />
    <path
       style="opacity:1;fill:none;stroke:#000000;stroke-width:0.79374999;stroke-linecap:round;stroke-linejoin:miter;stroke-miterlimit:4;stroke-dasharray:none;stroke-opacity:1"
       d="m 88.177113,102.57078 10.028338,10.02834"
       id="path7615"
       inkscape:connector-curvature="0" />
    <path
       style="opacity:1;fill:none;stroke:#000000;stroke-width:0.79374999;stroke-linecap:round;stroke-linejoin:miter;stroke-miterlimit:4;stroke-dasharray:none;stroke-opacity:1"
       d="m 79.600242,93.99393 4.211331,4.21133"
       id="path7613"
       inkscape:connector-curvature="0" />
    <path
       style="opacity:1;fill:none;stroke:#000000;stroke-width:0.79374999;stroke-linecap:round;stroke-linejoin:miter;stroke-miterlimit:4;stroke-dasharray:none;stroke-opacity:1"
       d="m 120.05811,145.44267 2.97786,5.1578"
       id="path7611"
       inkscape:connector-curvature="0" />
    <path
       style="opacity:1;fill:none;stroke:#000000;stroke-width:0.79374999;stroke-linecap:round;stroke-linejoin:miter;stroke-miterlimit:4;stroke-dasharray:none;stroke-opacity:1"
       d="m 93.117402,98.77996 6.511868,11.27889"
       id="path7607"
       inkscape:connector-curvature="0" />
    <path
       style="opacity:1;fill:none;stroke:#000000;stroke-width:0.79374999;stroke-linecap:round;stroke-linejoin:miter;stroke-miterlimit:4;stroke-dasharray:none;stroke-opacity:1"
       d="m 87.052634,88.27551 2.977859,5.1578"
       id="path7605"
       inkscape:connector-curvature="0" />
    <path
       style="opacity:1;fill:none;stroke:#000000;stroke-width:0.79374999;stroke-linecap:round;stroke-linejoin:miter;stroke-miterlimit:4;stroke-dasharray:none;stroke-opacity:1"
       d="m 112.81602,148.44244 1.54145,5.75278"
       id="path7603"
       inkscape:connector-curvature="0" />
    <path
       style="opacity:1;fill:none;stroke:#000000;stroke-width:0.79374999;stroke-linecap:round;stroke-linejoin:miter;stroke-miterlimit:4;stroke-dasharray:none;stroke-opacity:1"
       d="m 109.15664,134.78545 2.06149,7.69358"
       id="path7601"
       inkscape:connector-curvature="0" />
    <path
       style="opacity:1;fill:none;stroke:#000000;stroke-width:0.79374999;stroke-linecap:round;stroke-linejoin:miter;stroke-miterlimit:4;stroke-dasharray:none;stroke-opacity:1"
       d="m 98.87049,96.39696 2.32999,8.69565"
       id="path7597"
       inkscape:connector-curvature="0" />
    <path
       style="opacity:1;fill:none;stroke:#000000;stroke-width:0.79374999;stroke-linecap:round;stroke-linejoin:miter;stroke-miterlimit:4;stroke-dasharray:none;stroke-opacity:1"
       d="m 95.731134,84.68075 1.541449,5.75279"
       id="path7595"
       inkscape:connector-curvature="0" />
    <path
       style="opacity:1;fill:none;stroke:#000000;stroke-width:0.79374999;stroke-linecap:round;stroke-linejoin:miter;stroke-miterlimit:4;stroke-dasharray:none;stroke-opacity:1"
       d="m 105.0443,149.46561 v 5.95571"
       id="path7593"
       inkscape:connector-curvature="0" />
    <path
       style="opacity:1;fill:none;stroke:#000000;stroke-width:0.79374999;stroke-linecap:round;stroke-linejoin:miter;stroke-miterlimit:4;stroke-dasharray:none;stroke-opacity:1"
       d="m 105.04431,131.74887 -10e-6,11.54296"
       id="path7591"
       inkscape:connector-curvature="0" />
    <path
       style="opacity:1;fill:none;stroke:#000000;stroke-width:0.79374999;stroke-linecap:round;stroke-linejoin:miter;stroke-miterlimit:4;stroke-dasharray:none;stroke-opacity:1"
       d="m 105.0443,83.45465 v 5.95572"
       id="path7474"
       inkscape:connector-curvature="0" />
    <path
       style="opacity:1;fill:#000000;stroke:none;stroke-width:0.2230227;stroke-linecap:round;stroke-miterlimit:4;stroke-dasharray:none"
       d="m 105.0443,108.60265 -2.40473,7.60006 -7.971167,-0.0615 6.484967,4.63555 -2.52176,7.56201 6.41269,-4.73508 6.4127,4.73508 -2.52177,-7.56201 6.48498,-4.63555 -7.97118,0.0615 z m 0,4.94875 1.31401,4.15265 -1.31401,1.80848 5.6694,-1.84205 -3.54337,2.53282 -2.12603,-0.69077 3.50389,4.82263 -3.50389,-2.58721 v -2.23542 l -3.50388,4.82263 1.37786,-4.13186 2.12602,-0.69077 -5.66926,-1.84205 4.35539,0.0336 1.31387,1.80848 z"
       id="path7483"
       inkscape:connector-curvature="0" />
  </g>
</svg>
